<svg version="1.2" xmlns="http://www.w3.org/2000/svg" viewBox="0 0 132 152" width="132" height="152"><style>.a{fill:#fff}</style><path fill-rule="evenodd" class="a" d="m0.7 68.2c0-6.3 0.4-13.2 3.1-18.4 2.5-4.8 7.3-9.2 12.9-9.2h2.1c3.7 3.6 9.6 4.8 14.3 2.5q-0.7 1.1-1.3 2.2c-3.6 6.9-4 15.5-4 23.1 0 8.6 0.4 17 0 25.5-0.3 6.2 6.1 9.6 12.1 9.4l0.6 38c-3.6 2.8-9.7 2.4-12.9-1.4-4.6 5.7-15.7 3.7-15.7-4.6l-0.7-42.1c-2.3 2.9-10.8 1.6-10.5-2.5 0-9.3 0-13.2 0-22.5zm14.9-46.1c0.1-6.5 4.5-11.9 12-11.9 7.3 0 12 5.4 12.1 11.9 0.1 24.8-24.1 25.1-24.1 0zm83.3 21c4.7 2.3 10.6 1.1 14.3-2.5h2.1c5.6 0 10.4 4.4 12.9 9.1 2.7 5.3 3.1 12.2 3.1 18.5 0 9.3 0 13.2 0 22.5 0.3 4.1-8.2 5.4-10.5 2.5l-0.7 42.1c0 8.3-11.1 10.3-15.7 4.6-3.2 3.8-9.3 4.2-12.9 1.4l0.6-38c6 0.2 12.4-3.2 12.1-9.4-0.4-8.5 0-16.9 0-25.5 0-7.6-0.4-16.2-4-23.1q-0.6-1.1-1.3-2.2zm-6.6-21c0.1-6.5 4.5-11.9 12.1-11.9 7.2 0 11.9 5.4 12 11.9 0.1 24.8-24.1 25.1-24.1 0z"/><path class="a" d="m35 66.4c0-7.2 0.4-15.1 3.5-21 2.8-5.5 8.3-10.4 14.7-10.4h2.3c5.8 5.5 14.5 5.5 20.3 0h2.4c6.3 0 11.8 4.9 14.6 10.3 3.2 6 3.6 13.9 3.5 21.1 0 10.6 0 15.1 0 25.7 0.4 4.6-9.3 6.1-11.9 2.8l-0.8 47.9c0 9.5-12.6 11.8-17.9 5.2-5.4 6.6-18 4.3-18-5.2l-0.7-47.9c-2.7 3.3-12.4 1.8-12-2.8 0-10.6 0-15.1 0-25.7z"/><path class="a" d="m79.5 13.9c-0.2-7.4-5.6-13.6-13.8-13.6-8.7 0-13.7 6.1-13.9 13.5 0 28.6 27.8 28.2 27.7 0.1z"/></svg>